<?xml version="1.0" encoding="utf-8"?><svg xmlns="http://www.w3.org/2000/svg" xmlns:xlink="http://www.w3.org/1999/xlink" width="400" height="1024" preserveAspectRatio="xMidYMid" viewBox="0 0 400 1024" style="z-index:1;margin-right:-2px;display:block;background-color:rgb(11, 91, 137);animation-play-state:paused" ><g transform="translate(200,512) scale(1,1) translate(-200,-512)" style="transform:matrix(1, 0, 0, 1, 0, 0);animation-play-state:paused" ><g transform="matrix(1,0,0,1,225.214111328125,699.2667846679688)" style="transform:matrix(1, 0, 0, 1, 225.214, 699.267);animation-play-state:paused" ><path d="M84.717,33.597c0.791-2.503,1.186-5.138,1.186-7.773C85.903,11.594,74.308,0,60.079,0 c-9.881,0-18.445,5.534-22.793,13.702c-1.581-0.527-3.426-0.791-5.138-0.791c-9.486,0-17.128,7.642-17.128,17.128 c0,1.186,0.132,2.372,0.395,3.426C6.719,34.783,0,42.424,0,51.515C0,61.66,8.169,69.829,18.314,69.829h63.373 C91.831,69.829,100,61.66,100,51.515C99.868,42.556,93.281,35.046,84.717,33.597z" fill="#bddeff" transform="scale(0.55)" style="transform:matrix(0.55, 0, 0, 0.55, 0, 0);animation-play-state:paused" ></path></g>
<g transform="matrix(1,0,0,1,67.1898193359375,10.928474426269531)" style="transform:matrix(1, 0, 0, 1, 67.1898, 10.9285);animation-play-state:paused" ><path d="M84.717,33.597c0.791-2.503,1.186-5.138,1.186-7.773C85.903,11.594,74.308,0,60.079,0 c-9.881,0-18.445,5.534-22.793,13.702c-1.581-0.527-3.426-0.791-5.138-0.791c-9.486,0-17.128,7.642-17.128,17.128 c0,1.186,0.132,2.372,0.395,3.426C6.719,34.783,0,42.424,0,51.515C0,61.66,8.169,69.829,18.314,69.829h63.373 C91.831,69.829,100,61.66,100,51.515C99.868,42.556,93.281,35.046,84.717,33.597z" fill="#bddeff" transform="scale(0.55)" style="transform:matrix(0.55, 0, 0, 0.55, 0, 0);animation-play-state:paused" ></path></g>
<g transform="matrix(1,0,0,1,388.3935546875,257.5387878417969)" style="transform:matrix(1, 0, 0, 1, 388.394, 257.539);animation-play-state:paused" ><path d="M84.717,33.597c0.791-2.503,1.186-5.138,1.186-7.773C85.903,11.594,74.308,0,60.079,0 c-9.881,0-18.445,5.534-22.793,13.702c-1.581-0.527-3.426-0.791-5.138-0.791c-9.486,0-17.128,7.642-17.128,17.128 c0,1.186,0.132,2.372,0.395,3.426C6.719,34.783,0,42.424,0,51.515C0,61.66,8.169,69.829,18.314,69.829h63.373 C91.831,69.829,100,61.66,100,51.515C99.868,42.556,93.281,35.046,84.717,33.597z" fill="#bddeff" transform="scale(0.55)" style="transform:matrix(0.55, 0, 0, 0.55, 0, 0);animation-play-state:paused" ></path></g>
<g transform="matrix(1,0,0,1,399.5992126464844,303.24139404296875)" style="transform:matrix(1, 0, 0, 1, 399.599, 303.241);animation-play-state:paused" ><path d="M84.717,33.597c0.791-2.503,1.186-5.138,1.186-7.773C85.903,11.594,74.308,0,60.079,0 c-9.881,0-18.445,5.534-22.793,13.702c-1.581-0.527-3.426-0.791-5.138-0.791c-9.486,0-17.128,7.642-17.128,17.128 c0,1.186,0.132,2.372,0.395,3.426C6.719,34.783,0,42.424,0,51.515C0,61.66,8.169,69.829,18.314,69.829h63.373 C91.831,69.829,100,61.66,100,51.515C99.868,42.556,93.281,35.046,84.717,33.597z" fill="#bddeff" transform="scale(0.55)" style="transform:matrix(0.55, 0, 0, 0.55, 0, 0);animation-play-state:paused" ></path></g>
<g transform="matrix(1,0,0,1,15.228065490722656,720.6046752929688)" style="transform:matrix(1, 0, 0, 1, 15.2281, 720.605);animation-play-state:paused" ><path d="M84.717,33.597c0.791-2.503,1.186-5.138,1.186-7.773C85.903,11.594,74.308,0,60.079,0 c-9.881,0-18.445,5.534-22.793,13.702c-1.581-0.527-3.426-0.791-5.138-0.791c-9.486,0-17.128,7.642-17.128,17.128 c0,1.186,0.132,2.372,0.395,3.426C6.719,34.783,0,42.424,0,51.515C0,61.66,8.169,69.829,18.314,69.829h63.373 C91.831,69.829,100,61.66,100,51.515C99.868,42.556,93.281,35.046,84.717,33.597z" fill="#ffffff" transform="scale(0.7)" style="transform:matrix(0.7, 0, 0, 0.7, 0, 0);animation-play-state:paused" ></path></g>
<g transform="matrix(1,0,0,1,-6.658760070800781,632.0866088867188)" style="transform:matrix(1, 0, 0, 1, -6.65876, 632.087);animation-play-state:paused" ><path d="M84.717,33.597c0.791-2.503,1.186-5.138,1.186-7.773C85.903,11.594,74.308,0,60.079,0 c-9.881,0-18.445,5.534-22.793,13.702c-1.581-0.527-3.426-0.791-5.138-0.791c-9.486,0-17.128,7.642-17.128,17.128 c0,1.186,0.132,2.372,0.395,3.426C6.719,34.783,0,42.424,0,51.515C0,61.66,8.169,69.829,18.314,69.829h63.373 C91.831,69.829,100,61.66,100,51.515C99.868,42.556,93.281,35.046,84.717,33.597z" fill="#ffffff" transform="scale(0.7)" style="transform:matrix(0.7, 0, 0, 0.7, 0, 0);animation-play-state:paused" ></path></g>
<g transform="matrix(1,0,0,1,348.8580322265625,17.986614227294922)" style="transform:matrix(1, 0, 0, 1, 348.858, 17.9866);animation-play-state:paused" ><path d="M84.717,33.597c0.791-2.503,1.186-5.138,1.186-7.773C85.903,11.594,74.308,0,60.079,0 c-9.881,0-18.445,5.534-22.793,13.702c-1.581-0.527-3.426-0.791-5.138-0.791c-9.486,0-17.128,7.642-17.128,17.128 c0,1.186,0.132,2.372,0.395,3.426C6.719,34.783,0,42.424,0,51.515C0,61.66,8.169,69.829,18.314,69.829h63.373 C91.831,69.829,100,61.66,100,51.515C99.868,42.556,93.281,35.046,84.717,33.597z" fill="#ffffff" transform="scale(0.7)" style="transform:matrix(0.7, 0, 0, 0.7, 0, 0);animation-play-state:paused" ></path></g>
<g transform="matrix(1,0,0,1,155.62442016601562,141.63079833984375)" style="transform:matrix(1, 0, 0, 1, 155.624, 141.631);animation-play-state:paused" ><path d="M84.717,33.597c0.791-2.503,1.186-5.138,1.186-7.773C85.903,11.594,74.308,0,60.079,0 c-9.881,0-18.445,5.534-22.793,13.702c-1.581-0.527-3.426-0.791-5.138-0.791c-9.486,0-17.128,7.642-17.128,17.128 c0,1.186,0.132,2.372,0.395,3.426C6.719,34.783,0,42.424,0,51.515C0,61.66,8.169,69.829,18.314,69.829h63.373 C91.831,69.829,100,61.66,100,51.515C99.868,42.556,93.281,35.046,84.717,33.597z" fill="#ffffff" transform="scale(0.7)" style="transform:matrix(0.7, 0, 0, 0.7, 0, 0);animation-play-state:paused" ></path></g>
<g transform="matrix(1,0,0,1,-73.40156555175781,80.90872955322266)" style="transform:matrix(1, 0, 0, 1, -73.4016, 80.9087);animation-play-state:paused" ><path d="M84.717,33.597c0.791-2.503,1.186-5.138,1.186-7.773C85.903,11.594,74.308,0,60.079,0 c-9.881,0-18.445,5.534-22.793,13.702c-1.581-0.527-3.426-0.791-5.138-0.791c-9.486,0-17.128,7.642-17.128,17.128 c0,1.186,0.132,2.372,0.395,3.426C6.719,34.783,0,42.424,0,51.515C0,61.66,8.169,69.829,18.314,69.829h63.373 C91.831,69.829,100,61.66,100,51.515C99.868,42.556,93.281,35.046,84.717,33.597z" fill="#ffffff" transform="scale(0.7)" style="transform:matrix(0.7, 0, 0, 0.7, 0, 0);animation-play-state:paused" ></path></g>
<g transform="matrix(1,0,0,1,-94.85653686523438,437.5856628417969)" style="transform:matrix(1, 0, 0, 1, -94.8565, 437.586);animation-play-state:paused" ><path d="M84.717,33.597c0.791-2.503,1.186-5.138,1.186-7.773C85.903,11.594,74.308,0,60.079,0 c-9.881,0-18.445,5.534-22.793,13.702c-1.581-0.527-3.426-0.791-5.138-0.791c-9.486,0-17.128,7.642-17.128,17.128 c0,1.186,0.132,2.372,0.395,3.426C6.719,34.783,0,42.424,0,51.515C0,61.66,8.169,69.829,18.314,69.829h63.373 C91.831,69.829,100,61.66,100,51.515C99.868,42.556,93.281,35.046,84.717,33.597z" fill="#f1f2f3" transform="scale(0.85)" style="transform:matrix(0.85, 0, 0, 0.85, 0, 0);animation-play-state:paused" ></path></g>
<g transform="matrix(1,0,0,1,43.78533935546875,716.9844360351562)" style="transform:matrix(1, 0, 0, 1, 43.7853, 716.984);animation-play-state:paused" ><path d="M84.717,33.597c0.791-2.503,1.186-5.138,1.186-7.773C85.903,11.594,74.308,0,60.079,0 c-9.881,0-18.445,5.534-22.793,13.702c-1.581-0.527-3.426-0.791-5.138-0.791c-9.486,0-17.128,7.642-17.128,17.128 c0,1.186,0.132,2.372,0.395,3.426C6.719,34.783,0,42.424,0,51.515C0,61.66,8.169,69.829,18.314,69.829h63.373 C91.831,69.829,100,61.66,100,51.515C99.868,42.556,93.281,35.046,84.717,33.597z" fill="#f1f2f3" transform="scale(0.85)" style="transform:matrix(0.85, 0, 0, 0.85, 0, 0);animation-play-state:paused" ></path></g>
<g transform="matrix(1,0,0,1,-5.2753143310546875,631.5541381835938)" style="transform:matrix(1, 0, 0, 1, -5.27531, 631.554);animation-play-state:paused" ><path d="M84.717,33.597c0.791-2.503,1.186-5.138,1.186-7.773C85.903,11.594,74.308,0,60.079,0 c-9.881,0-18.445,5.534-22.793,13.702c-1.581-0.527-3.426-0.791-5.138-0.791c-9.486,0-17.128,7.642-17.128,17.128 c0,1.186,0.132,2.372,0.395,3.426C6.719,34.783,0,42.424,0,51.515C0,61.66,8.169,69.829,18.314,69.829h63.373 C91.831,69.829,100,61.66,100,51.515C99.868,42.556,93.281,35.046,84.717,33.597z" fill="#f1f2f3" transform="scale(0.85)" style="transform:matrix(0.85, 0, 0, 0.85, 0, 0);animation-play-state:paused" ></path></g>
<g transform="matrix(1,0,0,1,397.97320556640625,443.7961120605469)" style="transform:matrix(1, 0, 0, 1, 397.973, 443.796);animation-play-state:paused" ><path d="M84.717,33.597c0.791-2.503,1.186-5.138,1.186-7.773C85.903,11.594,74.308,0,60.079,0 c-9.881,0-18.445,5.534-22.793,13.702c-1.581-0.527-3.426-0.791-5.138-0.791c-9.486,0-17.128,7.642-17.128,17.128 c0,1.186,0.132,2.372,0.395,3.426C6.719,34.783,0,42.424,0,51.515C0,61.66,8.169,69.829,18.314,69.829h63.373 C91.831,69.829,100,61.66,100,51.515C99.868,42.556,93.281,35.046,84.717,33.597z" fill="#f1f2f3" transform="scale(0.85)" style="transform:matrix(0.85, 0, 0, 0.85, 0, 0);animation-play-state:paused" ></path></g>
<g transform="matrix(1,0,0,1,184.5556640625,704.7265625)" style="transform:matrix(1, 0, 0, 1, 184.556, 704.727);animation-play-state:paused" ><path d="M84.717,33.597c0.791-2.503,1.186-5.138,1.186-7.773C85.903,11.594,74.308,0,60.079,0 c-9.881,0-18.445,5.534-22.793,13.702c-1.581-0.527-3.426-0.791-5.138-0.791c-9.486,0-17.128,7.642-17.128,17.128 c0,1.186,0.132,2.372,0.395,3.426C6.719,34.783,0,42.424,0,51.515C0,61.66,8.169,69.829,18.314,69.829h63.373 C91.831,69.829,100,61.66,100,51.515C99.868,42.556,93.281,35.046,84.717,33.597z" fill="#bddeff" transform="scale(1)" style="transform:matrix(1, 0, 0, 1, 0, 0);animation-play-state:paused" ></path></g>
<g transform="matrix(1,0,0,1,134.10433959960938,752.6875610351562)" style="transform:matrix(1, 0, 0, 1, 134.104, 752.688);animation-play-state:paused" ><path d="M84.717,33.597c0.791-2.503,1.186-5.138,1.186-7.773C85.903,11.594,74.308,0,60.079,0 c-9.881,0-18.445,5.534-22.793,13.702c-1.581-0.527-3.426-0.791-5.138-0.791c-9.486,0-17.128,7.642-17.128,17.128 c0,1.186,0.132,2.372,0.395,3.426C6.719,34.783,0,42.424,0,51.515C0,61.66,8.169,69.829,18.314,69.829h63.373 C91.831,69.829,100,61.66,100,51.515C99.868,42.556,93.281,35.046,84.717,33.597z" fill="#bddeff" transform="scale(1)" style="transform:matrix(1, 0, 0, 1, 0, 0);animation-play-state:paused" ></path></g>
<g transform="matrix(1,0,0,1,68.19094848632812,642.186279296875)" style="transform:matrix(1, 0, 0, 1, 68.1909, 642.186);animation-play-state:paused" ><path d="M84.717,33.597c0.791-2.503,1.186-5.138,1.186-7.773C85.903,11.594,74.308,0,60.079,0 c-9.881,0-18.445,5.534-22.793,13.702c-1.581-0.527-3.426-0.791-5.138-0.791c-9.486,0-17.128,7.642-17.128,17.128 c0,1.186,0.132,2.372,0.395,3.426C6.719,34.783,0,42.424,0,51.515C0,61.66,8.169,69.829,18.314,69.829h63.373 C91.831,69.829,100,61.66,100,51.515C99.868,42.556,93.281,35.046,84.717,33.597z" fill="#bddeff" transform="scale(1)" style="transform:matrix(1, 0, 0, 1, 0, 0);animation-play-state:paused" ></path></g>
<g transform="matrix(1,0,0,1,148.47402954101562,15.436297416687012)" style="transform:matrix(1, 0, 0, 1, 148.474, 15.4363);animation-play-state:paused" ><path d="M84.717,33.597c0.791-2.503,1.186-5.138,1.186-7.773C85.903,11.594,74.308,0,60.079,0 c-9.881,0-18.445,5.534-22.793,13.702c-1.581-0.527-3.426-0.791-5.138-0.791c-9.486,0-17.128,7.642-17.128,17.128 c0,1.186,0.132,2.372,0.395,3.426C6.719,34.783,0,42.424,0,51.515C0,61.66,8.169,69.829,18.314,69.829h63.373 C91.831,69.829,100,61.66,100,51.515C99.868,42.556,93.281,35.046,84.717,33.597z" fill="#bddeff" transform="scale(1)" style="transform:matrix(1, 0, 0, 1, 0, 0);animation-play-state:paused" ></path></g>
<g transform="matrix(1,0,0,1,46.085540771484375,372.17333984375)" style="transform:matrix(1, 0, 0, 1, 46.0855, 372.173);animation-play-state:paused" ><path d="M84.717,33.597c0.791-2.503,1.186-5.138,1.186-7.773C85.903,11.594,74.308,0,60.079,0 c-9.881,0-18.445,5.534-22.793,13.702c-1.581-0.527-3.426-0.791-5.138-0.791c-9.486,0-17.128,7.642-17.128,17.128 c0,1.186,0.132,2.372,0.395,3.426C6.719,34.783,0,42.424,0,51.515C0,61.66,8.169,69.829,18.314,69.829h63.373 C91.831,69.829,100,61.66,100,51.515C99.868,42.556,93.281,35.046,84.717,33.597z" fill="#bddeff" transform="scale(1)" style="transform:matrix(1, 0, 0, 1, 0, 0);animation-play-state:paused" ></path></g></g></svg>